<svg viewBox="41.388 28.274 44 58" width="0px" xmlns="http://www.w3.org/2000/svg">
  <defs></defs>
  <g id="020---Travel-Location" fill="none" fill-rule="evenodd" transform="matrix(1, 0, 0, 1, 33.269745, 29.430006)">
    <g id="Layer_3" transform="translate(1 1)">
      <path id="Shape" d="m23.473 29.709-4.193-4.179" stroke="#000" stroke-linecap="round" stroke-linejoin="round" stroke-width="2"></path>
      <g fill-rule="nonzero">
        <path id="Shape" d="m29 0c-5.322905.01853281-10.4204319 2.15083904-14.1711665 5.92782875-3.7507345 3.7769897-5.84743106 8.88926645-5.8288335 14.21217125 0 8.31 6.07 17.55 11.51 24.16 2.4378417 2.9557506 5.0455809 5.7671673 7.81 8.42.3778581.3699484.9821419.3699484 1.36 0 2.7644191-2.6528327 5.3721583-5.4642494 7.81-8.42 5.44-6.61 11.51-15.85 11.51-24.16.0185976-5.3229048-2.078099-10.43518155-5.8288335-14.21217125-3.7507346-3.77698971-8.8482615-5.90929594-14.1711665-5.92782875zm0 36c-8.836556 0-16-7.163444-16-16s7.163444-16 16-16 16 7.163444 16 16c0 4.2434638-1.6857094 8.3131264-4.6862915 11.3137085s-7.0702447 4.6862915-11.3137085 4.6862915z" fill="#f44335"></path>
        <path id="Shape" d="m29 0c-.506 0-1 .039-1.5.076 10.4646701.82108733 18.5290249 9.56720701 18.5 20.064 0 8.31-6.07 17.55-11.51 24.16-2.197646 2.6605372-4.5307303 5.2062359-6.99 7.627.312.3.6.583.82.793.3778581.3699484.9821419.3699484 1.36 0 2.7644191-2.6528327 5.3721583-5.4642494 7.81-8.42 5.44-6.61 11.51-15.85 11.51-24.16.0185976-5.3229048-2.078099-10.43518155-5.8288335-14.21217125-3.7507346-3.77698971-8.8482615-5.90929594-14.1711665-5.92782875z" fill="#c81e1e"></path>
        <circle id="Oval" cx="29" cy="20" fill="#c81e1e" r="16"></circle>
        <path id="Shape" d="m37.42 14.385-2.987 2.987c-.2808389.2794106-.3702573.6982654-.228 1.068l2.682 7.025c.1491669.3908646.04086.8332509-.272 1.111l-.909.81c-.3951794.3511877-.995439.3341-1.37-.039l-4.255-4.247c-.3857799-.3800711-1.0052201-.3800711-1.391 0l-2.69 2.685c-.2638768.2690924-.3563592.6625279-.24 1.021l.32.93c.1151101.3553745.0225513.7452781-.24 1.011l-.971.96c-.1835644.1872713-.4347664.2927965-.697.2927965s-.5134356-.1055252-.697-.2927965l-4.18-4.194c-.1876045-.182772-.2934155-.433582-.2934155-.6955s.105811-.512728.2934155-.6955l.96-.961c.2632371-.2669986.6558464-.3601996 1.011-.24l.931.32c.3582409.1103053.7481247.0180953 1.019-.241l2.684-2.688c.3800711-.3857799.3800711-1.0052201 0-1.391l-4.243-4.253c-.3740146-.3744185-.391549-.9754126-.04-1.371l.809-.909c.2782277-.3127729.7208131-.4210312 1.112-.272l7.022 2.684c.3715424.1417875.7917135.0521144 1.073-.229l2.979-2.986c.7807665-.7288692 1.9984288-.7088141 2.7547692.0453715.7563404.7541855.7798694 1.9717857.0532308 2.7546285z" fill="#f5f5f5"></path>
      </g>
    </g>
    <g id="Layer_12" fill="#000" fill-rule="nonzero">
      <path id="Shape" d="m27.7 27.493 2.671-2.682 4.255 4.244c.7492487.7468232 1.9504938.7810068 2.741.078l.908-.809c.6211701-.5557322.8365432-1.4362982.542-2.216l-2.677-7.029 2.987-2.987c1.1644924-1.1672538 1.1622538-3.0575076-.005-4.222s-3.0575076-1.1622538-4.222.005l-2.987 2.988-7.025-2.681c-.7792131-.2943217-1.6591997-.0793905-2.215.541l-.808.907c-.6983119.7935554-.6646989 1.9918383.077 2.745l4.244 4.23-2.665 2.695-.932-.319c-.7158759-.2480855-1.5106141-.0620498-2.042.478l-.961.961c-.7374256.7228011-.7851736 1.894598-.109 2.675.0287132.0516751.062192.1005542.1.146l4.195 4.18c.372947.3773129.8835285.5863842 1.414.579 1-.007 1.421-.6 2.372-1.56.5294482-.5326177.7098152-1.3200264.465-2.03zm-1.428-1.4c-.5230419.5398283-.701945 1.3259996-.464 2.039l.323.905-.951.963-4.18-4.169.939-.962.963.33c.7128866.2189115 1.4884132.0309748 2.022-.49l2.691-2.7c.7597916-.780135.755791-2.0247655-.009-2.8l-4.245-4.252.819-.912 7.02 2.686c.7404415.2824654 1.5777415.1034916 2.138-.457l2.979-2.986c.3850624-.3774397 1.0021645-.3746878 1.3838454.0061711s.3857632.9979536.0091546 1.3838289l-2.987 2.987c-.5585748.5601933-.7359676 1.3962499-.453 2.135l2.68 7.032-.908.81-4.254-4.242c-.777687-.7622858-2.022313-.7622858-2.8 0z"></path>
      <path id="Shape" d="M 33.523 53.613 C 36.027 51.274 30.694 56.377 40.423 44.463 C 45.626 37.854 51 29.1 51 21.137 C 51 13.634 46.997 6.702 40.5 2.95 C 34.003 -0.801 25.997 -0.801 19.5 2.95 C 13.003 6.702 9 13.634 9 21.137 C 9 29.1 14.374 37.854 19.577 44.463 C 30.196 56.565 26.074 60.572 33.523 53.613 Z M 30 2 C 40.526 2.05 49.026 10.611 49 21.137 C 49 34.218 33.167 49.975 30.007 53 C 26.833 49.975 11 34.218 11 21.137 C 10.974 10.611 19.474 2.05 30 2 Z"></path>
      <path id="Shape" d="m47 21c0-9.3888407-7.6111593-17-17-17s-17 7.6111593-17 17 7.6111593 17 17 17c9.3845001-.010471 16.989529-7.6154999 17-17zm-32 0c0-8.2842712 6.7157288-15 15-15s15 6.7157288 15 15-6.7157288 15-15 15c-8.2803876-.0093685-14.9906315-6.7196124-15-15z"></path>
    </g>
  </g>
</svg>