<?xml version="1.0" encoding="UTF-8" standalone="no"?>
<!DOCTYPE svg PUBLIC "-//W3C//DTD SVG 1.1//EN" "http://www.w3.org/Graphics/SVG/1.1/DTD/svg11.dtd">
<svg version="1.1" xmlns="http://www.w3.org/2000/svg" xmlns:xlink="http://www.w3.org/1999/xlink" preserveAspectRatio="xMidYMid meet" viewBox="0 0 490 683" width="490" height="683"><defs><path d="M16.69 260.71C16.9 137.41 119.28 37.63 245.38 37.85C371.48 38.06 473.53 138.18 473.32 261.47C473.12 384.76 370.73 484.54 244.32 672.33C118.54 484.12 16.48 384 16.69 260.71Z" id="bgMzo9K5y"></path><path d="M238.1 682.5C229.94 682.5 222.35 677.82 217.98 670.1C191.89 623.9 159.2 583.85 127.61 545.13C95.37 505.64 64.93 468.33 41.49 425.57C14.43 376.2 1.25 326.39 1.21 273.31C1.28 200.38 26.7 131.88 72.78 80.38C118.86 28.87 180.11 0.5 245.25 0.5C310.39 0.5 371.64 28.87 417.72 80.38C463.8 131.88 489.22 200.37 489.29 273.24C489.24 332.95 473.2 386.91 438.82 443.12C431.4 455.27 416.58 458.38 405.73 450.07C394.87 441.76 392.1 425.18 399.52 413.03C428.24 366.09 441.63 321.67 441.67 273.25C441.55 152.26 353.43 53.78 245.25 53.78C137.06 53.78 48.95 152.26 48.83 273.31C48.91 369.69 101.68 434.34 162.77 509.2C190.87 543.64 219.78 579.06 245.25 619.81C270.72 579.06 299.63 543.63 327.73 509.2C328.1 508.75 331.04 505.15 331.41 504.7C340.27 493.83 355.33 493.06 365.04 502.98C374.76 512.9 375.45 529.75 366.58 540.62C366.21 541.07 363.26 544.68 362.89 545.13C331.3 583.86 298.61 623.9 272.52 670.1C268.15 677.82 260.56 682.5 252.39 682.5C249.53 682.5 239.53 682.5 238.1 682.5ZM270.25 317.52L270.25 256.25L215.49 256.25L215.49 317.52L270.25 317.52ZM379.77 317.52L379.77 256.25L325.01 256.25L325.01 317.52L379.77 317.52ZM325.01 194.98L270.25 194.98L270.25 256.25L325.01 256.25L325.01 194.98ZM160.72 317.52L160.72 256.25L105.96 256.25L105.96 317.52L160.72 317.52ZM215.49 194.98L160.72 194.98L160.72 256.25L215.49 256.25L215.49 194.98Z" id="b75J2E3QGk"></path></defs><g><g><g><use xlink:href="#bgMzo9K5y" opacity="1" fill="#42a5f2" fill-opacity="1"></use></g><g><use xlink:href="#b75J2E3QGk" opacity="1" fill="#000000" fill-opacity="1"></use><g><use xlink:href="#b75J2E3QGk" opacity="1" fill-opacity="0" stroke="#000000" stroke-width="1" stroke-opacity="0"></use></g></g></g></g></svg>